<?xml version="1.0" standalone="no"?><!DOCTYPE svg PUBLIC "-//W3C//DTD SVG 1.1//EN" "http://www.w3.org/Graphics/SVG/1.1/DTD/svg11.dtd"><svg t="1754710662064" class="icon" viewBox="0 0 1024 1024" version="1.1" xmlns="http://www.w3.org/2000/svg" p-id="13356" xmlns:xlink="http://www.w3.org/1999/xlink" width="200" height="200"><path d="M229.984 96C190.624 96 160 128.416 160 166.848v751.04c0 18.56 6.88 37.504 21.344 51.84 14.72 14.592 35.072 22.272 58.144 22.272h329.888c1.984 0 3.936-0.128 5.888-0.352 2.336 0.224 4.736 0.352 7.136 0.352h179.2a70.4 70.4 0 0 0 70.4-70.4V166.4A70.4 70.4 0 0 0 761.6 96H229.984z" fill="#B4ACBC" p-id="13357"></path><path d="M696.48 156.64A38.4 38.4 0 0 1 733.6 128h28A38.4 38.4 0 0 1 800 166.4v755.2a38.4 38.4 0 0 1-38.4 38.4h-179.2a38.4 38.4 0 0 1-38.4-38.4v-180.64a38.4 38.4 0 0 1 1.28-9.76l151.2-574.56z" fill="#CDC4D6" p-id="13358"></path><path d="M192 166.848C192 145.408 208.992 128 229.984 128h500.032C751.04 128 768 145.408 768 166.848V768l-187.328 187.328a16 16 0 0 1-11.296 4.672H239.456C207.872 960 192 939.36 192 917.92V166.848z" fill="#F3EEF8" p-id="13359"></path><path d="M576 960l192-192h-153.6a38.4 38.4 0 0 0-38.4 38.4V960z" fill="#B4ACBC" p-id="13360"></path><path d="M337.184 83.2c-14.464-19.392-37.632-31.968-61.6-32.64-44.224 0-77.28 37.024-77.28 80.032 0 43.04 33.184 74.336 63.456 78.08 25.184 3.136 27.168-30.56 6.496-33.12-17.12-2.112-36-18.848-36-44.48 0-25.6 18.304-46.4 43.328-46.4 24.992 0 42.88 24.896 42.88 43.296h3.872l-0.032 2.624c0 43.04 33.184 74.336 63.456 78.08 25.184 3.136 27.168-30.56 6.496-33.12-17.12-2.112-36-18.848-36-44.48 0-25.6 18.304-46.4 43.328-46.4 24.992 0 42.88 24.896 42.88 43.296h5.376l-0.032 2.624c0 43.04 33.184 74.336 63.424 78.08 25.216 3.136 27.2-30.56 6.528-33.12-17.152-2.112-36-18.848-36-44.48 0-25.6 18.304-46.4 43.328-46.4 24.992 0 42.88 24.896 42.88 43.296h4.864l-0.032 2.624c0 43.04 33.184 74.336 63.456 78.08 25.184 3.136 27.2-30.56 6.496-33.12-17.12-2.112-36-18.848-36-44.48 0-25.6 18.304-46.4 43.328-46.4 24.992 0 42.88 24.896 42.88 43.296h33.792c0-43.04-37.248-76.288-76.672-77.408-26.56 0-49.12 13.344-62.88 33.376-14.4-19.84-37.856-32.672-62.112-33.376-26.72 0-49.376 13.504-63.104 33.728-14.432-20.032-38.016-33.024-62.4-33.728-26.24 0-48.576 13.056-62.4 32.64z" fill="#BEBEBE" p-id="13361"></path><path d="M272 320a16 16 0 0 0 0 32h416a16 16 0 0 0 0-32h-416zM256 432a16 16 0 0 1 16-16h416a16 16 0 0 1 0 32h-416a16 16 0 0 1-16-16zM272 512a16 16 0 0 0 0 32h416a16 16 0 0 0 0-32h-416zM272 608a16 16 0 0 0 0 32h224a16 16 0 0 0 0-32h-224z" fill="#998EA4" p-id="13362"></path></svg>